<svg xmlns="http://www.w3.org/2000/svg" xmlns:xlink="http://www.w3.org/1999/xlink" version="1.1" id="Capa_1" x="0px" y="0px" viewBox="0 0 415.481 415.481" style="enable-background:new 0 0 415.481 415.481;" xml:space="preserve">
  <g>
    <path d="M263.768,332.171c14.135,14.135,32.696,21.202,51.263,21.2c18.563-0.001,37.131-7.068,51.263-21.2   c13.693-13.692,21.234-31.898,21.234-51.263s-7.541-37.57-21.234-51.263c-28.266-28.266-74.258-28.267-102.526,0   C235.502,257.911,235.502,303.904,263.768,332.171z M315.031,221.439c15.235,0,30.471,5.799,42.07,17.398   c11.237,11.237,17.426,26.178,17.426,42.07s-6.189,30.833-17.426,42.07c-23.198,23.199-60.942,23.198-84.141,0   c-23.198-23.198-23.198-60.943,0-84.141C284.56,227.238,299.796,221.439,315.031,221.439z" style="fill: #6772e5"></path>
    <path d="M386.093,209.846l-80.602-80.602c-2.538-2.538-6.654-2.538-9.192,0c-2.539,2.539-2.539,6.654,0,9.192l80.602,80.602   c34.115,34.115,34.115,89.624,0,123.739c-34.115,34.115-89.624,34.115-123.739,0L106.798,196.414c-2.538-2.538-6.654-2.538-9.192,0   c-2.539,2.539-2.539,6.654,0,9.192L243.969,351.97c19.592,19.592,45.327,29.388,71.062,29.388c25.735,0,51.47-9.796,71.062-29.388   C425.277,312.786,425.277,249.029,386.093,209.846z" style="fill: #6772e5"></path>
    <path d="M271.905,114.043c1.269,1.269,2.933,1.904,4.596,1.904s3.327-0.635,4.596-1.904c2.539-2.539,2.539-6.654,0-9.192   L239.73,63.482c-2.538-2.538-6.654-2.538-9.192,0c-2.539,2.539-2.539,6.654,0,9.192L271.905,114.043z" style="fill: #6772e5"></path>
    <path d="M11.096,47.326c-2.538-2.538-6.654-2.538-9.192,0c-2.539,2.539-2.539,6.654,0,9.192l39.2,39.2   c1.269,1.269,2.933,1.904,4.596,1.904s3.327-0.635,4.596-1.904c2.539-2.539,2.539-6.654,0-9.192L11.096,47.326z" style="fill: #6772e5"></path>
    <path d="M215.869,267.791c1.664,0,3.327-0.635,4.596-1.904c2.539-2.539,2.539-6.654,0-9.192l-155.37-155.37   c-2.538-2.538-6.654-2.538-9.192,0c-2.539,2.539-2.539,6.654,0,9.192l155.37,155.37   C212.542,267.156,214.206,267.791,215.869,267.791z" style="fill: #6772e5"></path>
    <path d="M203.319,178.388c1.269,1.269,2.933,1.904,4.596,1.904s3.327-0.635,4.596-1.904c2.539-2.539,2.539-6.654,0-9.192   l-82.728-82.728c-2.538-2.538-6.654-2.538-9.192,0c-2.539,2.539-2.539,6.654,0,9.192L203.319,178.388z" style="fill: #6772e5"></path>
    <path d="M241.5,216.569c1.269,1.269,2.933,1.904,4.596,1.904c1.664,0,3.327-0.635,4.596-1.904c2.539-2.539,2.539-6.654,0-9.192   l-18.03-18.03c-2.538-2.538-6.654-2.538-9.192,0c-2.539,2.539-2.539,6.654,0,9.192L241.5,216.569z" style="fill: #6772e5"></path>
    <path d="M210.213,105.736c1.269,1.269,2.933,1.904,4.596,1.904s3.327-0.635,4.596-1.904c2.539-2.539,2.539-6.654,0-9.192   l-60.517-60.517c-2.538-2.538-6.654-2.538-9.192,0c-2.539,2.539-2.539,6.654,0,9.192L210.213,105.736z" style="fill: #6772e5"></path>
    <path d="M240.617,117.756c-2.538-2.538-6.654-2.538-9.192,0c-2.539,2.539-2.539,6.654,0,9.192l59.394,59.394   c1.269,1.269,2.933,1.904,4.596,1.904s3.327-0.635,4.596-1.904c2.539-2.539,2.539-6.654,0-9.192L240.617,117.756z" style="fill: #6772e5"></path>
    <path d="M291.916,282.231c10.614,0,19.25-8.635,19.25-19.249c0-10.614-8.635-19.25-19.25-19.25   c-10.614,0-19.249,8.635-19.249,19.25C272.667,273.595,281.302,282.231,291.916,282.231z M291.916,256.732   c3.446,0,6.25,2.804,6.25,6.25s-2.804,6.249-6.25,6.249s-6.249-2.803-6.249-6.249S288.47,256.732,291.916,256.732z" style="fill: #6772e5"></path>
    <path d="M343.67,320.479c14.288,0,25.912-11.624,25.912-25.912c0-14.288-11.624-25.912-25.912-25.912   c-14.288,0-25.912,11.624-25.912,25.912C317.758,308.855,329.382,320.479,343.67,320.479z M343.67,281.655   c7.12,0,12.912,5.792,12.912,12.912s-5.792,12.912-12.912,12.912s-12.912-5.792-12.912-12.912S336.55,281.655,343.67,281.655z" style="fill: #6772e5"></path>
    <path d="M294.915,303.991c-1.905-4.641-8.646-5.429-11.4-1.12c-2.745,4.001,0.019,9.587,4.765,10.079   C293.023,313.44,296.841,308.413,294.915,303.991C294.755,303.601,295.085,304.381,294.915,303.991z" style="fill: #6772e5"></path>
    <path d="M329.415,250.471c1.902,4.647,8.646,5.429,11.4,1.12c1.765-2.572,1.324-6.174-0.92-8.305   c-2.156-2.047-5.615-2.402-8.09-0.705C329.243,244.216,328.236,247.696,329.415,250.471   C329.575,250.861,329.245,250.071,329.415,250.471z" style="fill: #6772e5"></path>
    <path d="M304.915,321.481c0,3.536,2.962,6.5,6.5,6.5c3.536,0,6.5-2.966,6.5-6.5c0-3.544-2.956-6.5-6.5-6.5   C307.871,314.981,304.915,317.937,304.915,321.481z" style="fill: #6772e5"></path>
  </g>
</svg>
