<?xml version="1.0" standalone="no"?>
<svg
  width="600"
  height="600"
  viewBox="0 0 600 600"
  xmlns="http://www.w3.org/2000/svg"
>
  <g transform="translate(300,300) scale(0.9)" style="opacity: 0.25">
    <path d="M107.6,-152.6C144.7,-121.2,183.6,-96.7,199.1,-61.7C214.6,-26.7,206.7,19,183.6,50.3C160.5,81.6,122.3,98.7,89.2,108.4C56,118.1,28,120.6,6.3,111.9C-15.5,103.3,-31,83.6,-72.2,76.5C-113.4,69.4,-180.3,74.9,-214.1,50.7C-247.9,26.6,-248.5,-27.2,-233.8,-77C-219,-126.8,-188.9,-172.6,-147.3,-202.6C-105.8,-232.6,-52.9,-246.8,-8.8,-234.7C35.3,-222.5,70.5,-184.1,107.6,-152.6Z" fill="#bfc5d1" />
  </g>
</svg>
