<?xml version="1.0" standalone="no"?>
<svg
  width="600"
  height="600"
  viewBox="0 0 600 600"
  xmlns="http://www.w3.org/2000/svg"
>
  <g transform="translate(300,320) scale(0.9)" style="opacity: 0.25">
    <path d="M120.8,-136.5C156.7,-113.8,186.2,-75.9,205.8,-27C225.5,21.8,235.3,81.7,208.7,113.8C182.2,146,119.3,150.5,66.9,158.7C14.5,167,-27.5,178.9,-60.4,166.6C-93.3,154.3,-117.3,117.9,-153.4,77.7C-189.6,37.5,-238.1,-6.5,-240.6,-51.1C-243.1,-95.7,-199.7,-140.9,-151.9,-161.5C-104.1,-182.1,-52.1,-178,-4.8,-172.3C42.4,-166.6,84.8,-159.1,120.8,-136.5Z" fill="#bfc5d1" />
  </g>
</svg>
