<?xml version="1.0" standalone="no"?>
<svg
  width="600"
  height="600"
  viewBox="0 0 600 600"
  xmlns="http://www.w3.org/2000/svg"
>
  <g transform="translate(300,320) scale(1.1)" style="opacity: 0.15">
    <path d="M111,-109.9C153.8,-96.3,205.4,-70.8,210.3,-37.8C215.2,-4.9,173.4,35.6,141.8,73.8C110.1,112.1,88.6,148.1,58.9,156.8C29.2,165.4,-8.7,146.6,-33.7,123.9C-58.7,101.2,-70.9,74.6,-101.3,46.6C-131.6,18.6,-180,-10.9,-190.7,-48.1C-201.4,-85.3,-174.3,-130.4,-136.2,-144.8C-98.1,-159.3,-49.1,-143.1,-7.5,-134.2C34.1,-125.3,68.1,-123.5,111,-109.9Z" fill="#bfc5d1" />
  </g>
</svg>
