<?xml version="1.0" standalone="no"?>
<svg
  width="600"
  height="600"
  viewBox="0 0 600 600"
  xmlns="http://www.w3.org/2000/svg"
>
  <g transform="translate(300,320) scale(0.9)" style="opacity: 0.15">
    <path d="M88.1,-133.4C109.2,-105.9,117.8,-73.5,141.7,-37.3C165.5,-1,204.5,39,203.5,73.5C202.5,108,161.5,136.9,120.9,137.3C80.3,137.6,40.2,109.3,-9.1,121.8C-58.4,134.4,-116.8,187.7,-156.7,187.2C-196.7,186.7,-218.2,132.3,-208.2,85.9C-198.1,39.5,-156.6,1,-145.6,-51.7C-134.5,-104.5,-154,-171.6,-134.8,-199.7C-115.6,-227.8,-57.8,-216.9,-12.1,-200.2C33.5,-183.4,67,-160.9,88.1,-133.4Z" fill="#bfc5d1" />
  </g>
</svg>
