<?xml version="1.0" standalone="no"?>
<svg
  width="600"
  height="600"
  viewBox="0 0 600 600"
  xmlns="http://www.w3.org/2000/svg"
>
  <g transform="translate(300,320) scale(0.9)" style="opacity: 0.25">
    <path d="M113.8,-130.5C148,-107,176.4,-71.6,192.3,-27.2C208.2,17.3,211.5,70.6,187.4,104.4C163.4,138.1,111.9,152.2,63.5,166.3C15,180.4,-30.4,194.5,-71.4,184.6C-112.4,174.7,-148.9,140.9,-181.8,98.1C-214.8,55.2,-244.3,3.5,-239.8,-45.8C-235.2,-95,-196.7,-141.7,-151,-163.2C-105.4,-184.6,-52.7,-180.8,-6.4,-173.2C39.9,-165.5,79.7,-154,113.8,-130.5Z" fill="#bfc5d1" />
  </g>
</svg>
