<svg id="b7804aec-61a6-4222-8d2d-62658e90c1cd" data-name="Layer 1" xmlns="http://www.w3.org/2000/svg" width="970.15365" height="753.56388" viewBox="0 0 970.15365 753.56388"><title>mobile app</title><path d="M833.69164,503.89989,641.02788,263.14232a64.6863,64.6863,0,0,1-31.15834,15.733c-36.27094,7.14326-71.69282-17.62565-79.117-55.32291-5.24805-26.64771,4.91144-52.60794,24.12256-68.06873L489.18227,73.39221l-374.2591,319.862L459.43248,823.76189Z" transform="translate(-114.92317 -73.39221)" fill="#f2f2f2"/><path d="M426.738,308.9623l-160.52554,32.803a31.0415,31.0415,0,0,0-22.216,42.87343L426.99809,802.19194a40.77739,40.77739,0,0,0,49.30178,22.61737l184.96049-56.94148a34.8392,34.8392,0,0,0,20.50891-49.65592l-206.33544-387.973A46.15067,46.15067,0,0,0,426.738,308.9623Z" transform="translate(-114.92317 -73.39221)" fill="#3f3d56"/><path d="M266.00792,345.83586l26.394-5.20447h0a18.73011,18.73011,0,0,0,20.1848,10.31009l95.37961-17.11942a6.6907,6.6907,0,0,0,5.16535-8.70125l-2.59458-7.78368,26.26986-5.18a26.02686,26.02686,0,0,1,27.90391,13.10875L678.39305,718.5128a25.93687,25.93687,0,0,1-15.242,37.19781L481.03892,811.103a32.61871,32.61871,0,0,1-39.239-17.82412L252.37534,372.23568A18.97367,18.97367,0,0,1,266.00792,345.83586Z" transform="translate(-114.92317 -73.39221)" fill="#457cff"/><line x1="264.65365" y1="255.06388" x2="225.65365" y2="263.06388" fill="none" stroke="#2f2e41" stroke-miterlimit="10" stroke-width="2"/><ellipse cx="215.65365" cy="264.56388" rx="4" ry="3.5" fill="#2f2e41"/><polygon points="241.654 302.064 413.654 671.064 652.654 606.064 652.654 598.064 466.654 251.064 245.654 299.064 244.604 299.854 241.654 302.064" fill="#fff"/><polygon points="241.654 302.064 413.654 671.064 652.654 606.064 652.654 598.064 414.654 665.064 244.604 299.854 241.654 302.064" opacity="0.2"/><line x1="548.65365" y1="458.06388" x2="372.65365" y2="503.06388" fill="#3f3d56" stroke="#3f3d56" stroke-miterlimit="10" stroke-width="2"/><line x1="558.65365" y1="477.06388" x2="381.65365" y2="523.06388" fill="#3f3d56" stroke="#3f3d56" stroke-miterlimit="10" stroke-width="2"/><line x1="535.65365" y1="503.06388" x2="424.65365" y2="533.06388" fill="#3f3d56" stroke="#3f3d56" stroke-miterlimit="10" stroke-width="2"/><polygon points="434.654 588.064 450.864 623.354 451.654 625.064 454.414 624.364 588.654 590.064 588.654 585.064 570.654 551.064 437.654 587.064 436.464 587.464 434.654 588.064" fill="#457cff"/><polygon points="434.654 588.064 450.864 623.354 451.654 625.064 454.414 624.364 588.654 590.064 588.654 585.064 453.654 621.064 436.464 587.464 434.654 588.064" opacity="0.2"/><line x1="82.15365" y1="752.56388" x2="970.15365" y2="752.56388" fill="none" stroke="#3f3d56" stroke-miterlimit="10" stroke-width="2"/><path d="M561.47586,452.373c-11.45137-29.92693-43.07216-47.07722-68.45735-38.99687-23.26935,7.40686-32.828,33.6919-23.04839,59.24994s36.3907,43.83759,61.25218,40.5916C558.34438,509.67649,572.92723,482.2999,561.47586,452.373Z" transform="translate(-114.92317 -73.39221)" fill="#3f3d56" stroke="#3f3d56" stroke-miterlimit="10" stroke-width="2"/><path d="M561.47586,452.373c-11.45137-29.92693-43.07216-47.07722-68.45735-38.99687-23.26935,7.40686-32.828,33.6919-23.04839,59.24994s36.3907,43.83759,61.25218,40.5916C558.34438,509.67649,572.92723,482.2999,561.47586,452.373Z" transform="translate(-114.92317 -73.39221)" opacity="0.2"/><path d="M566.47586,447.373c-11.45137-29.92693-43.07216-47.07722-68.45735-38.99687-23.26935,7.40686-32.828,33.6919-23.04839,59.24994s36.3907,43.83759,61.25218,40.5916C563.34438,504.67649,577.92723,477.2999,566.47586,447.373Z" transform="translate(-114.92317 -73.39221)" fill="#3f3d56" stroke="#3f3d56" stroke-miterlimit="10" stroke-width="2"/><circle cx="619.42905" cy="56.91588" r="14.75556" fill="none" stroke="#3f3d56" stroke-miterlimit="10" stroke-width="2"/><circle cx="814.42905" cy="485.91588" r="14.75556" fill="none" stroke="#3f3d56" stroke-miterlimit="10" stroke-width="2"/><circle cx="170.69572" cy="93.91588" r="14.75556" fill="none" stroke="#3f3d56" stroke-miterlimit="10" stroke-width="2"/><circle cx="479.37657" cy="139.7294" r="54.31516" fill="#f2f2f2"/><circle cx="692.9535" cy="234.91667" r="36.79985" fill="#2f2e41"/><polygon points="732.654 696.064 739.654 726.064 722.654 726.064 715.654 692.064 732.654 696.064" fill="#9f616a"/><polygon points="650.654 696.064 650.654 724.064 633.654 726.064 633.654 696.064 650.654 696.064" fill="#9f616a"/><path d="M852.57683,451.4561s-2,43-4,46-20,46-20,46l-9-28s14-23,12-36-.74-28.99711-.74-28.99711Z" transform="translate(-114.92317 -73.39221)" fill="#9f616a"/><circle cx="680.65365" cy="246.06388" r="28" fill="#9f616a"/><path d="M818.57683,322.4561s-1,40,6,46-40,1-40,1,10-28,2-34S818.57683,322.4561,818.57683,322.4561Z" transform="translate(-114.92317 -73.39221)" fill="#9f616a"/><path d="M781.57683,367.4561s6-11,14-10,34,3,35,5,4,9,6,11,17,5,18,17-36,85-36,85,5,17,4,21,5,16,4,21,15,35,7,74v63s27,109,19,117-35,3-40,0-26-154-26-154l-10-51-1,112s2,94-5,97-34,4-36-2c-1.55984-4.67951-9.2024-129.18869-12.49082-183.76644a203.905,203.905,0,0,1,4.40284-56.17549c4.16209-18.87768,10.20448-41.05657,17.088-50.05807,13-17,21-71,21-71l-17-31s10-10,16-10S781.57683,367.4561,781.57683,367.4561Z" transform="translate(-114.92317 -73.39221)" fill="#2f2e41"/><path d="M848.57683,383.4561l5.27357,3.58937s3.72643,64.41063.72643,68.41063-23.85728,2.04776-25.42864-1.47612S848.57683,383.4561,848.57683,383.4561Z" transform="translate(-114.92317 -73.39221)" fill="#2f2e41"/><path d="M759.40019,442.01963c2.92713,20.30658,5.49231,38.38334-9.47485,54.73713a280.86164,280.86164,0,0,1-50.53357,43.77194c-1.83569,4.86276-28.78522,40.57217-30.15613,26.32809s7.94006-25.41089,21.17151-37.45617,31.74237-38.18036,42.18689-52.5207,6.14465-23.28283,5.78186-35.261S755.29344,442.16459,759.40019,442.01963Z" transform="translate(-114.92317 -73.39221)" fill="#9f616a"/><path d="M748.57683,781.25531s-1,11.20079-4,14.20079-11,7-10,18,7.5,11.5,7.5,11.5l-.5-2.5,3,1,.5,1.5h28s.5-10.5-.5-15.5-1-29-4-28-11,2-13,6S747.57683,790.05452,748.57683,781.25531Z" transform="translate(-114.92317 -73.39221)" fill="#2f2e41"/><path d="M850.57683,781.25531s1,11.20079,4,14.20079,11,7,10,18-7.5,11.5-7.5,11.5l.5-2.5-3,1-.5,1.5h-28s-.5-10.5.5-15.5,1-29,4-28,11,2,13,6S851.57683,790.05452,850.57683,781.25531Z" transform="translate(-114.92317 -73.39221)" fill="#2f2e41"/><path d="M761.57683,378.4561l-14,3s0,22-4,31-11,30-8,31,31,15,33,7S775.57683,378.4561,761.57683,378.4561Z" transform="translate(-114.92317 -73.39221)" fill="#2f2e41"/><circle cx="732.82" cy="186.46354" r="36.79985" fill="#2f2e41"/><path d="M879.485,290.32839a36.80185,36.80185,0,0,1-56.82871-19.323,36.80188,36.80188,0,1,0,71.78659-15.09134A36.78829,36.78829,0,0,1,879.485,290.32839Z" transform="translate(-114.92317 -73.39221)" fill="#2f2e41"/><circle cx="702.76678" cy="241.04997" r="26.98656" fill="#2f2e41"/><ellipse cx="680.07355" cy="230.93" rx="23.9199" ry="18.70659" fill="#2f2e41"/><ellipse cx="673.69343" cy="250.09857" rx="4.53977" ry="8.03191" fill="#a0616a"/></svg>